<?xml version="1.0" standalone="no"?>
<!DOCTYPE svg PUBLIC "-//W3C//DTD SVG 20010904//EN"
 "http://www.w3.org/TR/2001/REC-SVG-20010904/DTD/svg10.dtd">
<svg version="1.0" xmlns="http://www.w3.org/2000/svg"
 width="512.000000pt" height="512.000000pt" viewBox="0 0 512.000000 512.000000"
 preserveAspectRatio="xMidYMid meet">
<metadata>
Created by potrace 1.14, written by Peter Selinger 2001-2017
</metadata>
<g transform="translate(0.000000,512.000000) scale(0.100000,-0.100000)"
fill="#000000" stroke="none">
<path d="M3987 4869 l-326 -251 75 -99 75 -99 -46 -20 c-73 -31 -205 -67 -315
-86 -147 -24 -380 -16 -511 19 -225 59 -421 178 -581 351 -31 33 -58 59 -60
56 -3 -3 -33 -66 -68 -140 -35 -74 -105 -220 -155 -325 -51 -104 -309 -648
-574 -1207 l-482 -1018 26 -34 26 -34 -90 -71 c-171 -136 -248 -242 -258 -351
-6 -61 14 -156 46 -218 69 -136 262 -223 501 -225 176 -1 262 30 405 147 44
36 83 66 86 66 4 0 30 -36 59 -80 60 -92 108 -138 182 -177 45 -24 65 -28 133
-28 69 0 89 5 148 32 37 18 93 52 125 76 110 84 120 85 191 13 98 -99 220
-133 441 -123 259 13 403 52 665 182 252 124 373 230 526 458 49 73 59 96 59
130 0 60 -29 101 -84 122 -44 17 -48 17 -91 1 -39 -15 -54 -30 -108 -109 -81
-119 -182 -226 -270 -284 -77 -51 -311 -162 -397 -187 -134 -40 -437 -62 -502
-37 -13 5 -48 33 -78 63 -153 149 -305 143 -521 -21 -66 -50 -111 -61 -141
-35 -11 11 -40 49 -64 86 -87 135 -162 187 -269 188 -78 0 -138 -28 -235 -110
-41 -34 -93 -71 -115 -83 -57 -29 -163 -34 -261 -12 -98 22 -130 37 -149 75
-29 56 -21 80 53 151 73 71 156 139 169 139 4 0 19 -13 33 -29 l25 -29 1415
263 c778 145 1416 264 1417 264 1 1 -16 38 -38 84 -49 102 -104 273 -124 391
-29 168 -16 382 30 521 30 92 97 214 161 294 61 76 172 181 191 181 5 0 34
-34 64 -75 29 -41 59 -75 65 -75 6 0 65 42 131 94 66 51 210 162 319 246 109
84 201 155 203 156 4 3 -796 1074 -802 1074 -2 0 -150 -113 -330 -251z"/>
</g>
</svg>
