<?xml version="1.0" standalone="no"?>
<!DOCTYPE svg PUBLIC "-//W3C//DTD SVG 20010904//EN"
 "http://www.w3.org/TR/2001/REC-SVG-20010904/DTD/svg10.dtd">
<svg version="1.0" xmlns="http://www.w3.org/2000/svg"
 width="512.000000pt" height="512.000000pt" viewBox="0 0 512.000000 512.000000"
 preserveAspectRatio="xMidYMid meet">
<metadata>
Created by potrace 1.14, written by Peter Selinger 2001-2017
</metadata>
<g transform="translate(0.000000,512.000000) scale(0.100000,-0.100000)"
fill="#000000" stroke="none">
<path d="M4730 5094 c-25 -14 -65 -37 -90 -51 -59 -34 -247 -140 -284 -161
-209 -119 -274 -156 -291 -163 -11 -6 -69 -38 -130 -73 l-110 -63 0 -537 0
-537 30 -18 c16 -10 49 -28 72 -41 l41 -23 79 45 78 46 0 447 0 448 85 48 85
49 3 -365 2 -365 33 -20 c17 -11 50 -30 73 -41 l40 -22 75 43 c41 24 76 45 78
46 2 2 3 204 2 448 l-1 445 67 39 c124 72 109 97 110 -186 1 -136 2 -301 2
-367 l1 -120 67 -38 c74 -42 72 -42 171 13 l63 35 -2 442 c-1 243 -5 446 -8
450 -12 19 -131 84 -141 78 -5 -3 -10 -2 -10 4 0 7 -133 92 -143 91 -1 0 -22
-12 -47 -26z"/>
<path d="M3640 4480 c-8 -5 -42 -25 -75 -45 l-60 -35 0 -357 c0 -235 -4 -357
-10 -360 -6 -2 -78 35 -160 82 -82 47 -152 85 -157 85 -4 0 -8 19 -9 43 -1 23
-2 68 -3 101 l-1 58 -68 39 c-75 42 -68 43 -171 -15 -52 -30 -73 -37 -85 -29
-9 5 -42 24 -73 42 l-58 31 -37 -23 c-21 -13 -45 -27 -53 -30 -8 -4 -30 -16
-49 -28 -29 -17 -219 -127 -341 -197 -19 -11 -170 -97 -335 -192 -165 -95
-336 -194 -380 -219 -44 -25 -89 -51 -100 -58 -11 -7 -26 -15 -34 -19 -8 -4
-75 -42 -148 -85 -124 -72 -133 -76 -133 -54 0 18 -15 32 -71 64 -39 23 -75
39 -80 35 -5 -3 -9 -1 -9 5 0 5 -33 28 -72 50 l-73 40 -60 -33 c-109 -60 -370
-207 -390 -220 -11 -7 -51 -30 -90 -51 -38 -21 -76 -43 -83 -50 -9 -8 -13 -40
-13 -98 l0 -86 -77 -43 -77 -43 0 -269 0 -269 60 -38 c33 -21 67 -38 77 -38 9
-1 18 -5 20 -10 1 -5 38 -28 82 -50 l78 -42 0 -117 c-1 -64 -1 -148 -2 -187 0
-38 -4 -65 -8 -60 -8 12 -42 34 -107 71 -32 17 -50 22 -58 16 -7 -6 -41 -26
-77 -45 l-65 -36 -1 -89 -1 -90 51 -30 c28 -17 65 -37 81 -44 17 -7 32 -15 35
-19 12 -14 136 -76 146 -73 6 3 289 -155 630 -349 340 -195 639 -365 664 -379
25 -14 286 -163 581 -332 l535 -306 120 69 c663 380 814 467 846 488 21 12 40
23 42 23 4 0 277 157 441 253 39 23 84 49 100 57 17 9 46 26 65 37 55 32 421
243 465 268 22 12 90 51 150 85 61 35 122 71 137 81 l26 19 0 683 0 684 -281
160 c-155 89 -298 170 -317 181 -118 66 -704 403 -708 407 -3 2 -6 206 -7 452
-4 515 -2 473 -14 473 -5 0 -35 16 -67 35 -63 38 -62 38 -84 25z m-2827 -1450
c-9 -7 -247 -146 -309 -180 -21 -12 -61 -35 -89 -51 -27 -16 -60 -35 -72 -41
-22 -11 -22 -16 -22 -142 1 -186 0 -196 -11 -196 -5 0 -8 73 -7 186 l2 186
129 74 c71 41 131 74 132 74 2 0 27 14 56 31 29 18 73 43 98 57 25 13 49 28
54 33 6 5 18 2 28 -8 10 -9 15 -19 11 -23z"/>
</g>
</svg>
